<svg version="1.1" viewBox="0 0 4.6113 14.363" xmlns="http://www.w3.org/2000/svg">
<defs>
 <g id="square">
  <rect x=".075595" y=".075537" width="4.5357" height="14.363" rx="2.2679" ry="2.2679" />
 </g>
 <g id="triangle">
  <path d="m2.3436 0.24204-2.2652 6.64 2.2652 7.3778 2.2652-7.3778z"/>
 </g>
 <g id="circle">
  <path d="m0.83154 0.075437c1.5119 0 3.7075 1.3631 3.7798 3.0238 0.14518 3.3368-0.78231 3.3393-0.75595 6.8036-0.026357 2.5357 1.5119 4.5357 0 4.5357s-3.7798-1-3.7798-3.0238c0-3.9762 0.74098-3.9762 0.75595-6.8036 0.011506-2.1726-1.5119-4.5357 0-4.5357z"/>
 </g>
<pattern id="hatched-red" patternUnits="userSpaceOnUse" width="4" height="4">
  <path d="M-1,1 l2,-2
           M0,4 l4,-4
           M3,5 l2,-2"
        style="stroke:#df0f0f; stroke-width:0.3" />
</pattern>
<pattern id="hatched-purple" patternUnits="userSpaceOnUse" width="4" height="4">
  <path d="M-1,1 l2,-2
           M0,4 l4,-4
           M3,5 l2,-2"
        style="stroke:#3c0fdf; stroke-width:0.3" />
</pattern>
<pattern id="hatched-green" patternUnits="userSpaceOnUse" width="4" height="4">
  <path d="M-1,1 l2,-2
           M0,4 l4,-4
           M3,5 l2,-2"
        style="stroke:#0fdf2b; stroke-width:0.3" />
</pattern>
    </defs>
</svg>
